<?xml version="1.0"?><svg width="365.5" height="556" xmlns="http://www.w3.org/2000/svg">
 <title>California Poppy</title>
 <g>
  <title>Layer 1</title>
  <path fill="#ff6e00" fill-rule="evenodd" stroke="#000000" stroke-width="2px" id="path2" d="m223,207.25l-18,8.75l-1.5,-2q-1.5,-2 -2.5,-3.25q-1,-1.25 -1,-3.25l0,-2l-5,1.5q-5,1.5 -8.5,3l-3.5,1.5l-4.5,-0.5q-4.5,-0.5 -7,-0.5q-2.5,0 -5.5,-1.25l-3,-1.25l-1.25,-5.5q-1.25,-5.5 -1,-7.25l0.25,-1.75l-1,-0.5q-1,-0.5 -2.25,-2.75q-1.25,-2.25 -2,-4.5q-0.75,-2.25 -2.25,-6q-1.5,-3.75 -3.75,-6.25l-2.25,-2.5l0,-3q0,-3 1.25,-4.25q1.25,-1.25 2.25,-3l1,-1.75l0,-2.5q0,-2.5 2,-2.5q2,0 3,-5l1,-5l2.25,-1.5q2.25,-1.5 3,-3.5l0.75,-2l2.75,-1.5q2.75,-1.5 3.5,-3.5l0.75,-2l3.25,-1.5q3.25,-1.5 5,-2.75q1.75,-1.25 2.75,-1l1,0.25l2,-4q2,-4 3,-4.5l1,-0.5l0.5,-0.25l0.5,-0.25l3,-1.25l3,-1.25l0.5,-2.25q0.5,-2.25 6,-4.5l5.5,-2.25l1,-2.5q1,-2.5 2.25,-3.5q1.25,-1 3.25,-4l2,-3l1.75,-1.5q1.75,-1.5 5.75,-2.75q4,-1.25 6.5,-2l2.5,-0.75l11.5,0.25q11.5,0.25 16,1.25q4.5,1 12.5,4q8,3 17.25,7.75l9.25,4.75l1.5,5.5q1.5,5.5 5.5,11.5q4,6 6.5,11.5q2.5,5.5 2,15l-0.5,9.5l-5.25,4.75q-5.25,4.75 -26.25,16.75q-21,12 -31.5,17q-10.5,5 -28.5,13.75z"/>
  <path fill="#ff7f00" fill-rule="evenodd" stroke="#000000" stroke-width="2px" id="path4" d="m232.75,73.5l0.25,10.5l-2.5,0.75q-2.5,0.75 -6.5,2q-4,1.25 -5.75,2.75l-1.75,1.5l-2,3q-2,3 -3.25,4q-1.25,1 -2.25,3.5l-1,2.5l-5.5,2.25q-5.5,2.25 -6,4.5l-0.5,2.25l-3,1.25l-3,1.25l-0.5,0.25l-0.5,0.25l-4,-2.75q-4,-2.75 -5.5,-6l-1.5,-3.25l-3.5,-1.75q-3.5,-1.75 -6.5,-6.25l-3,-4.5l-0.5,-0.25l-0.5,-0.25l2.5,-4.25q2.5,-4.25 11,-10.75q8.5,-6.5 16,-9q7.5,-2.5 16.5,-3.5q9,-1 15.5,-1l6.5,0l0.25,0.25q0.25,0.25 0.5,10.75z"/>
  <path fill="#ff6100" fill-rule="evenodd" stroke="#000000" stroke-width="2px" id="path6" d="m158,89.25l6,1.75l0.5,0.25l0.5,0.25l3,4.5q3,4.5 6.5,6.25l3.5,1.75l1.5,3.25q1.5,3.25 5.5,6l4,2.75l-1,0.5q-1,0.5 -3,4.5l-2,4l-1,-0.25q-1,-0.25 -2.75,1q-1.75,1.25 -5,2.75l-3.25,1.5l-0.75,2q-0.75,2 -3.5,3.5l-2.75,1.5l-0.75,2q-0.75,2 -3,3.5l-2.25,1.5l-1,5q-1,5 -3,5q-2,0 -2,2.5l0,2.5l-1,-0.25q-1,-0.25 -6,-3.25q-5,-3 -6.75,-5.25l-1.75,-2.25l-1.25,0.5q-1.25,0.5 -2.25,-0.5q-1,-1 -7,-2q-6,-1 -8.25,-5.5l-2.25,-4.5l-1.25,0.75q-1.25,0.75 -4.25,-0.25q-3,-1 -4.75,-2.25q-1.75,-1.25 -5.5,-2.75q-3.75,-1.5 -4,-2.5q-0.25,-1 -1,-2l-0.75,-1l2.75,-10q2.75,-10 3.75,-12q1,-2 3,-14q2,-12 3.75,-13.25q1.75,-1.25 5.25,-1.25l3.5,0l0.25,0.25q0.25,0.25 1,4q0.75,3.75 11.75,2.75l11,-1l6,3q6,3 12,4.75z"/>
  <path fill="#ff8c00" fill-rule="evenodd" stroke="#000000" stroke-width="2px" id="path8" d="m93,127.25l1,-1.25l0.75,1q0.75,1 1,2q0.25,1 4,2.5q3.75,1.5 5.5,2.75q1.75,1.25 4.75,2.25q3,1 4.25,0.25l1.25,-0.75l2.25,4.5q2.25,4.5 8.25,5.5q6,1 7,2q1,1 2.25,0.5l1.25,-0.5l1.75,2.25q1.75,2.25 6.75,5.25q5,3 6,3.25l1,0.25l-1,1.75q-1,1.75 -2.25,3q-1.25,1.25 -1.25,4.25l0,3l2.25,2.5q2.25,2.5 3.75,6.25q1.5,3.75 2.25,6q0.75,2.25 2,4.5q1.25,2.25 2.25,2.75l1,0.5l-0.25,1.75q-0.25,1.75 1,7.25l1.25,5.5l-3,1.75q-3,1.75 -4.5,2.25q-1.5,0.5 -10.5,1.25l-9,0.75l-12,-1.25q-12,-1.25 -27,-7.25q-15,-6 -16,-7.25l-1,-1.25l-2,-0.25q-2,-0.25 -13,-4.25l-11,-4l-0.5,-0.75l-0.5,-0.75l-1.25,-5.5q-1.25,-5.5 -2.75,-17.5q-1.5,-12 -1,-13l0.5,-1l3.25,-2.25q3.25,-2.25 5.5,-5.5q2.25,-3.25 7.5,-7l5.25,-3.75l3.5,0q3.5,0 4.5,0.5q1,0.5 7.5,-1.5q6.5,-2 7.5,-3.25z"/>
  <path fill="#ff7f00" fill-rule="evenodd" stroke="#000000" stroke-width="2px" id="path10" d="m48.5,187.75l4.5,-0.75l0.5,0.75l0.5,0.75l11,4q11,4 13,4.25l2,0.25l1,1.25q1,1.25 16,7.25q15,6 27,7.25l12,1.25l0.75,1l0.75,1l0.25,4q0.25,4 -2,5q-2.25,1 -2.5,2.5l-0.25,1.5l4.25,2.5q4.25,2.5 4.5,3l0.25,0.5l0,0.5l0,0.5l-19.5,1.25q-19.5,1.25 -23,0.25q-3.5,-1 -17.5,-6.5q-14,-5.5 -20,-9.5q-6,-4 -13.5,-8.5q-7.5,-4.5 -23.5,-10q-16,-5.5 -19.75,-7.75l-3.75,-2.25l-0.25,-4q-0.25,-4 0.75,-4.25q1,-0.25 3.75,-4.5q2.75,-4.25 5,-8l2.25,-3.75l8.5,7.5l8.5,7.5l7,2.5l7,2.5l4.5,-0.75z"/>
  <path fill="#5A0000" fill-rule="evenodd" stroke="#000000" stroke-width="2px" id="path12" d="m203.5,214l1.5,2l0,0.5l0,0.5l-16,4l-16,4l-0.5,0l-0.5,0l-1,-3.5q-1,-3.5 -3.5,-4.25l-2.5,-0.75l-1.5,0.5q-1.5,0.5 -3.5,6.75l-2,6.25l-8,2.5l-8,2.5l-0.25,-0.5q-0.25,-0.5 -4.5,-3l-4.25,-2.5l0.25,-1.5q0.25,-1.5 2.5,-2.5q2.25,-1 2,-5l-0.25,-4l-0.75,-1l-0.75,-1l9,-0.75q9,-0.75 10.5,-1.25q1.5,-0.5 4.5,-2.25l3,-1.75l3,1.25q3,1.25 5.5,1.25q2.5,0 7,0.5l4.5,0.5l3.5,-1.5q3.5,-1.5 8.5,-3l5,-1.5l0,2q0,2 1,3.25q1,1.25 2.5,3.25z"/>
  <path fill="#007200" fill-rule="evenodd" stroke="#000000" stroke-width="2px" id="path14" d="m172.5,225l0.5,0l-1.5,0.5q-1.5,0.5 -3.25,15.5q-1.75,15 -4.75,37.5q-3,22.5 -8,43.5q-5,21 -8.5,33.5q-3.5,12.5 -8.5,26.5q-5,14 -12.5,32q-7.5,18 -11.5,28.5q-4,10.5 -5,12.5q-1,2 -9,21.5q-8,19.5 -10,23q-2,3.5 -4.25,5l-2.25,1.5l0.25,-4q0.25,-4 1.25,-8q1,-4 10,-26.5q9,-22.5 9.75,-24.75q0.75,-2.25 5,-13.5q4.25,-11.25 5.5,-12.75q1.25,-1.5 10,-25q8.75,-23.5 11.25,-31.5q2.5,-8 9.5,-37.5q7,-29.5 10.25,-61q3.25,-31.5 2.25,-31.5l-1,0l2,-6.25q2,-6.25 3.5,-6.75l1.5,-0.5l2.5,0.75q2.5,0.75 3.5,4.25l1,3.5l0.5,0z"/>
 </g>
</svg>